<svg xmlns="http://www.w3.org/2000/svg" width="720" height="210" viewBox="0 0 720 210" role="img" aria-label="">
  <rect width="720" height="210" rx="12" fill="#fffefa"/>
  <rect x="28" y="28" width="188" height="154" rx="10" fill="#eef6ff" stroke="#c7d7f7"/>
  <rect x="266" y="28" width="188" height="154" rx="10" fill="#eaf7f3" stroke="#b9d9d1"/>
  <rect x="504" y="28" width="188" height="154" rx="10" fill="#fff4df" stroke="#f3cf91"/>
  <circle cx="72" cy="72" r="20" fill="#2563eb"/>
  <circle cx="310" cy="72" r="20" fill="#0f766e"/>
  <circle cx="548" cy="72" r="20" fill="#b4532a"/>
  <rect x="106" y="56" width="74" height="10" rx="5" fill="#8ea8d8"/>
  <rect x="106" y="78" width="52" height="10" rx="5" fill="#c2d0ea"/>
  <rect x="344" y="56" width="74" height="10" rx="5" fill="#81a9a4"/>
  <rect x="344" y="78" width="52" height="10" rx="5" fill="#cfe6df"/>
  <rect x="582" y="56" width="74" height="10" rx="5" fill="#d8a029"/>
  <rect x="582" y="78" width="52" height="10" rx="5" fill="#f3cf91"/>
  <rect x="58" y="122" width="128" height="12" rx="6" fill="#d8e5fb"/>
  <rect x="58" y="146" width="92" height="12" rx="6" fill="#d8e5fb"/>
  <rect x="296" y="122" width="128" height="12" rx="6" fill="#cfe6df"/>
  <rect x="296" y="146" width="92" height="12" rx="6" fill="#cfe6df"/>
  <rect x="534" y="122" width="128" height="12" rx="6" fill="#ffe4c2"/>
  <rect x="534" y="146" width="92" height="12" rx="6" fill="#ffe4c2"/>
  <path d="M226 105h30" stroke="#536170" stroke-width="3" stroke-linecap="round"/>
  <path d="M248 96l9 9-9 9" fill="none" stroke="#536170" stroke-width="3" stroke-linecap="round" stroke-linejoin="round"/>
  <path d="M464 105h30" stroke="#536170" stroke-width="3" stroke-linecap="round"/>
  <path d="M486 96l9 9-9 9" fill="none" stroke="#536170" stroke-width="3" stroke-linecap="round" stroke-linejoin="round"/>
</svg>
