<svg xmlns="http://www.w3.org/2000/svg" width="720" height="210" viewBox="0 0 720 210" role="img" aria-label="">
  <rect width="720" height="210" rx="10" fill="#0b1220"/>
  <circle cx="108" cy="16" r="110" fill="#22d3ee" opacity=".14"/>
  <circle cx="612" cy="20" r="128" fill="#a78bfa" opacity=".16"/>
  <circle cx="602" cy="204" r="104" fill="#f59e0b" opacity=".12"/>
  <rect x="28" y="30" width="188" height="150" rx="8" fill="#0e1827" stroke="#386f9f"/>
  <rect x="266" y="30" width="188" height="150" rx="8" fill="#0e1827" stroke="#2f8278"/>
  <rect x="504" y="30" width="188" height="150" rx="8" fill="#0e1827" stroke="#9b5a74"/>
  <path d="M28 30h188v32H28z" fill="#60a5fa" opacity=".16"/>
  <path d="M266 30h188v32H266z" fill="#2dd4bf" opacity=".16"/>
  <path d="M504 30h188v32H504z" fill="#fb7185" opacity=".16"/>
  <circle cx="72" cy="78" r="20" fill="#60a5fa"/>
  <circle cx="310" cy="78" r="20" fill="#2dd4bf"/>
  <circle cx="548" cy="78" r="20" fill="#fb7185"/>
  <rect x="106" y="62" width="74" height="10" rx="5" fill="#bfdbfe"/>
  <rect x="106" y="84" width="52" height="10" rx="5" fill="#6b89b3"/>
  <rect x="344" y="62" width="74" height="10" rx="5" fill="#ccfbf1"/>
  <rect x="344" y="84" width="52" height="10" rx="5" fill="#6ea9a0"/>
  <rect x="582" y="62" width="74" height="10" rx="5" fill="#fecdd3"/>
  <rect x="582" y="84" width="52" height="10" rx="5" fill="#bd7282"/>
  <rect x="58" y="122" width="128" height="12" rx="6" fill="#21476d"/>
  <rect x="58" y="146" width="92" height="12" rx="6" fill="#1a3553"/>
  <rect x="296" y="122" width="128" height="12" rx="6" fill="#1a514c"/>
  <rect x="296" y="146" width="92" height="12" rx="6" fill="#173d3a"/>
  <rect x="534" y="122" width="128" height="12" rx="6" fill="#653545"/>
  <rect x="534" y="146" width="92" height="12" rx="6" fill="#4c2b38"/>
  <path d="M226 105h30" stroke="#aab8c7" stroke-width="3" stroke-linecap="round"/>
  <path d="M248 96l9 9-9 9" fill="none" stroke="#aab8c7" stroke-width="3" stroke-linecap="round" stroke-linejoin="round"/>
  <path d="M464 105h30" stroke="#aab8c7" stroke-width="3" stroke-linecap="round"/>
  <path d="M486 96l9 9-9 9" fill="none" stroke="#aab8c7" stroke-width="3" stroke-linecap="round" stroke-linejoin="round"/>
</svg>
